<svg width="16" height="16" viewBox="0 0 16 16" fill="none" xmlns="http://www.w3.org/2000/svg">
  <g clip-path="url(#clip0)">
    <path d="M5.42801 6.07185C5.78305 6.07185 6.07087 5.78403 6.07087 5.42899C6.07087 5.07395 5.78305 4.78613 5.42801 4.78613C5.07297 4.78613 4.78516 5.07395 4.78516 5.42899C4.78516 5.78403 5.07297 6.07185 5.42801 6.07185Z" stroke="#00395C" stroke-opacity="0.8" stroke-width="0.5" stroke-miterlimit="10" stroke-linecap="round"/>
    <path d="M7.99979 6.07185C8.35483 6.07185 8.64265 5.78403 8.64265 5.42899C8.64265 5.07395 8.35483 4.78613 7.99979 4.78613C7.64475 4.78613 7.35693 5.07395 7.35693 5.42899C7.35693 5.78403 7.64475 6.07185 7.99979 6.07185Z" stroke="#00395C" stroke-opacity="0.8" stroke-width="0.5" stroke-miterlimit="10" stroke-linecap="round"/>
    <path d="M10.5711 6.07185C10.9261 6.07185 11.2139 5.78403 11.2139 5.42899C11.2139 5.07395 10.9261 4.78613 10.5711 4.78613C10.216 4.78613 9.92822 5.07395 9.92822 5.42899C9.92822 5.78403 10.216 6.07185 10.5711 6.07185Z" stroke="#00395C" stroke-opacity="0.8" stroke-width="0.5" stroke-miterlimit="10" stroke-linecap="round"/>
    <path d="M5.42801 3.50056C5.78305 3.50056 6.07087 3.21274 6.07087 2.8577C6.07087 2.50266 5.78305 2.21484 5.42801 2.21484C5.07297 2.21484 4.78516 2.50266 4.78516 2.8577C4.78516 3.21274 5.07297 3.50056 5.42801 3.50056Z" stroke="#00395C" stroke-opacity="0.8" stroke-width="0.5" stroke-miterlimit="10" stroke-linecap="round"/>
    <path d="M7.99979 3.50056C8.35483 3.50056 8.64265 3.21274 8.64265 2.8577C8.64265 2.50266 8.35483 2.21484 7.99979 2.21484C7.64475 2.21484 7.35693 2.50266 7.35693 2.8577C7.35693 3.21274 7.64475 3.50056 7.99979 3.50056Z" stroke="#00395C" stroke-opacity="0.8" stroke-width="0.5" stroke-miterlimit="10" stroke-linecap="round"/>
    <path d="M10.5711 3.50056C10.9261 3.50056 11.2139 3.21274 11.2139 2.8577C11.2139 2.50266 10.9261 2.21484 10.5711 2.21484C10.216 2.21484 9.92822 2.50266 9.92822 2.8577C9.92822 3.21274 10.216 3.50056 10.5711 3.50056Z" stroke="#00395C" stroke-opacity="0.8" stroke-width="0.5" stroke-miterlimit="10" stroke-linecap="round"/>
    <path d="M5.42801 8.64314C5.78305 8.64314 6.07087 8.35532 6.07087 8.00028C6.07087 7.64524 5.78305 7.35742 5.42801 7.35742C5.07297 7.35742 4.78516 7.64524 4.78516 8.00028C4.78516 8.35532 5.07297 8.64314 5.42801 8.64314Z" stroke="#00395C" stroke-opacity="0.8" stroke-width="0.5" stroke-miterlimit="10" stroke-linecap="round"/>
    <path d="M7.99979 8.64314C8.35483 8.64314 8.64265 8.35532 8.64265 8.00028C8.64265 7.64524 8.35483 7.35742 7.99979 7.35742C7.64475 7.35742 7.35693 7.64524 7.35693 8.00028C7.35693 8.35532 7.64475 8.64314 7.99979 8.64314Z" stroke="#00395C" stroke-opacity="0.8" stroke-width="0.5" stroke-miterlimit="10" stroke-linecap="round"/>
    <path d="M10.5711 8.64314C10.9261 8.64314 11.2139 8.35532 11.2139 8.00028C11.2139 7.64524 10.9261 7.35742 10.5711 7.35742C10.216 7.35742 9.92822 7.64524 9.92822 8.00028C9.92822 8.35532 10.216 8.64314 10.5711 8.64314Z" stroke="#00395C" stroke-opacity="0.8" stroke-width="0.5" stroke-miterlimit="10" stroke-linecap="round"/>
    <path d="M5.42801 11.2154C5.78305 11.2154 6.07087 10.9276 6.07087 10.5725C6.07087 10.2175 5.78305 9.92969 5.42801 9.92969C5.07297 9.92969 4.78516 10.2175 4.78516 10.5725C4.78516 10.9276 5.07297 11.2154 5.42801 11.2154Z" stroke="#00395C" stroke-opacity="0.8" stroke-width="0.5" stroke-miterlimit="10" stroke-linecap="round"/>
    <path d="M2.85672 6.07185C3.21176 6.07185 3.49958 5.78403 3.49958 5.42899C3.49958 5.07395 3.21176 4.78613 2.85672 4.78613C2.50168 4.78613 2.21387 5.07395 2.21387 5.42899C2.21387 5.78403 2.50168 6.07185 2.85672 6.07185Z" stroke="#00395C" stroke-opacity="0.8" stroke-width="0.5" stroke-miterlimit="10" stroke-linecap="round"/>
    <path d="M2.85721 3.50056C3.21225 3.50056 3.50007 3.21274 3.50007 2.8577C3.50007 2.50266 3.21225 2.21484 2.85721 2.21484C2.50217 2.21484 2.21436 2.50266 2.21436 2.8577C2.21436 3.21274 2.50217 3.50056 2.85721 3.50056Z" stroke="#00395C" stroke-opacity="0.8" stroke-width="0.5" stroke-miterlimit="10" stroke-linecap="round"/>
    <path d="M2.85672 8.64314C3.21176 8.64314 3.49958 8.35532 3.49958 8.00028C3.49958 7.64524 3.21176 7.35742 2.85672 7.35742C2.50168 7.35742 2.21387 7.64524 2.21387 8.00028C2.21387 8.35532 2.50168 8.64314 2.85672 8.64314Z" stroke="#00395C" stroke-opacity="0.8" stroke-width="0.5" stroke-miterlimit="10" stroke-linecap="round"/>
    <path d="M2.85672 11.2154C3.21176 11.2154 3.49958 10.9276 3.49958 10.5725C3.49958 10.2175 3.21176 9.92969 2.85672 9.92969C2.50168 9.92969 2.21387 10.2175 2.21387 10.5725C2.21387 10.9276 2.50168 11.2154 2.85672 11.2154Z" stroke="#00395C" stroke-opacity="0.8" stroke-width="0.5" stroke-miterlimit="10" stroke-linecap="round"/>
    <path d="M7.99979 11.2154C8.35483 11.2154 8.64265 10.9276 8.64265 10.5725C8.64265 10.2175 8.35483 9.92969 7.99979 9.92969C7.64475 9.92969 7.35693 10.2175 7.35693 10.5725C7.35693 10.9276 7.64475 11.2154 7.99979 11.2154Z" stroke="#00395C" stroke-opacity="0.8" stroke-width="0.5" stroke-miterlimit="10" stroke-linecap="round"/>
    <path d="M10.5711 11.2154C10.9261 11.2154 11.2139 10.9276 11.2139 10.5725C11.2139 10.2175 10.9261 9.92969 10.5711 9.92969C10.216 9.92969 9.92822 10.2175 9.92822 10.5725C9.92822 10.9276 10.216 11.2154 10.5711 11.2154Z" stroke="#00395C" stroke-opacity="0.8" stroke-width="0.5" stroke-miterlimit="10" stroke-linecap="round"/>
    <path d="M13.9995 8H7.99951V14H13.9995V8Z" fill="white"/>
    <path d="M11.0424 12.0713L9.49951 10.357H10.3567V9.49986C10.3567 9.24272 10.5281 9.07129 10.7852 9.07129H11.2138C11.4709 9.07129 11.6424 9.24272 11.6424 9.49986V10.357H12.4995L11.0424 12.0713Z" fill="white" stroke="#00395C" stroke-opacity="0.8" stroke-width="0.5" stroke-miterlimit="10" stroke-linecap="round"/>
    <path d="M9.0708 12.0713V13.357H12.9279V12.0713" stroke="#00395C" stroke-opacity="0.8" stroke-width="0.5" stroke-miterlimit="10" stroke-linecap="round" stroke-linejoin="round"/>
  </g>
  <defs>
    <clipPath id="clip0">
      <rect width="12" height="12" fill="white" transform="translate(2 2)"/>
    </clipPath>
  </defs>
</svg>
