<svg width="32" height="32" viewBox="0 0 32 32" fill="none" xmlns="http://www.w3.org/2000/svg">
<path fill-rule="evenodd" clip-rule="evenodd" d="M10 6C8.9 6 8.01 6.9 8.01 8L8 24C8 25.1 8.89 26 9.99 26H22C23.1 26 24 25.1 24 24V12.4142C24 12.149 23.8946 11.8946 23.7071 11.7071L18.2929 6.29289C18.1054 6.10536 17.851 6 17.5858 6H10ZM18 13C17.4477 13 17 12.5523 17 12V7.5L22.5 13H18ZM18 17H20V20.2426L21.1569 19.0858L22.5711 20.5L19.0355 24.0355L15.5 20.5L16.9142 19.0858L18 20.1716V17Z" fill="#00395C" fill-opacity="0.8"/>
</svg>
